<svg version="1.0" xmlns="http://www.w3.org/2000/svg"
     width="690.000000pt" height="362.000000pt" viewBox="0 0 690.000000 362.000000"
     preserveAspectRatio="xMidYMid meet">

    <g transform="translate(0.000000,362.000000) scale(0.100000,-0.100000)"
       fill="currentColor" stroke="currentColor">
        <path d="M2790 2075 c-8 -2 -46 -7 -84 -10 -81 -8 -95 -20 -151 -126 -80 -153
-118 -317 -118 -514 0 -71 5 -157 12 -190 28 -139 89 -281 151 -357 27 -32 38
-38 102 -48 83 -14 342 -8 400 9 61 19 141 158 189 331 20 73 23 108 23 250 1
174 -7 228 -51 365 -29 90 -62 160 -104 222 -24 34 -37 43 -76 51 -51 11 -268
23 -293 17z m229 -75 c121 -65 214 -208 251 -391 24 -114 25 -188 5 -303 -36
-208 -155 -382 -295 -431 -23 -8 -73 -15 -110 -15 -133 0 -256 95 -331 255
-50 109 -69 200 -69 338 0 412 280 690 549 547z"/>
        <path d="M2788 1788 c26 -13 28 -25 5 -31 -12 -3 -9 -5 8 -6 32 -1 39 -16 39
-87 0 -61 -13 -94 -35 -94 -20 0 -22 145 -2 154 6 3 2 3 -11 0 -13 -3 -28 -1
-35 4 -9 8 -11 -8 -8 -69 2 -58 0 -79 -9 -79 -10 0 -10 -3 0 -15 7 -8 25 -15
41 -15 23 0 32 -7 49 -40 28 -55 26 -70 -10 -70 -28 0 -30 2 -30 39 0 30 -4
40 -20 44 -22 6 -22 5 -20 -201 1 -67 -3 -109 -11 -118 -10 -12 -7 -13 19 -8
37 7 53 -13 27 -33 -22 -15 -71 -17 -80 -3 -8 12 -52 13 -59 1 -4 -5 3 -7 13
-4 11 3 30 -2 43 -11 12 -9 39 -16 59 -16 30 0 43 7 72 40 44 48 71 133 65
201 l-5 47 43 17 c72 27 114 96 114 185 0 48 -18 110 -33 110 -9 0 -11 -23 -9
-84 4 -93 -14 -146 -64 -185 -38 -30 -51 -26 -69 16 -9 21 -23 45 -31 54 -14
15 -13 20 5 50 25 41 28 124 6 156 -14 20 -14 23 4 33 35 18 118 10 105 -11
-3 -5 16 -8 43 -6 69 3 76 -17 81 -214 4 -166 -7 -238 -49 -327 -24 -49 -54
-61 -108 -42 -65 23 -66 23 -21 -9 47 -32 95 -40 131 -21 27 15 58 81 75 159
26 124 14 384 -22 453 -15 29 -18 30 -59 25 -30 -5 -53 -1 -76 10 -30 15 -36
15 -81 -1 -44 -15 -50 -15 -70 -1 -13 8 -27 15 -33 14 -5 0 0 -5 13 -11z m67
-444 c0 -82 -25 -159 -49 -151 -11 4 -22 198 -12 224 4 8 16 12 33 10 28 -4
28 -4 28 -83z"/>
        <path d="M2644 1783 c14 -25 40 -32 66 -17 25 13 25 13 -7 8 -21 -4 -39 -2
-50 7 -11 9 -14 10 -9 2z"/>
        <path d="M2648 1478 c2 -160 -1 -264 -7 -272 -7 -8 0 -11 29 -11 33 0 37 2 29
17 -5 9 -9 124 -9 254 0 212 2 240 18 257 16 19 16 20 -5 8 -15 -8 -29 -8 -40
-2 -17 9 -18 -6 -15 -251z"/>
        <path d="M2918 1603 c3 -118 4 -123 23 -113 17 10 19 22 19 113 0 57 5 107 10
113 7 7 -1 10 -22 10 l-33 0 3 -123z"/>
        <path d="M2933 1403 c-9 -3 -13 -32 -13 -97 0 -51 -5 -97 -10 -102 -7 -7 0
-10 22 -10 l33 1 -3 108 c-2 59 -6 107 -10 106 -4 0 -13 -3 -19 -6z"/>
        <path d="M2740 1015 c0 -29 4 -45 13 -45 8 0 12 16 12 45 0 29 -4 45 -12 45
-9 0 -13 -16 -13 -45z"/>
        <path d="M2797 1053 c6 -4 13 -22 16 -38 4 -27 5 -27 3 4 0 21 -7 36 -16 38
-10 3 -11 2 -3 -4z"/>
        <path d="M2860 1015 c0 -25 5 -45 10 -45 6 0 10 20 10 45 0 25 -4 45 -10 45
-5 0 -10 -20 -10 -45z"/>
        <path d="M2920 1041 c5 -11 15 -23 21 -26 6 -4 14 -17 19 -29 6 -14 9 -16 9
-5 1 9 10 24 21 34 11 10 20 25 20 34 0 10 -5 7 -13 -9 -16 -31 -49 -32 -62
-2 -5 12 -13 22 -18 22 -4 0 -3 -9 3 -19z"/>
        <path d="M867 1673 c-66 -86 -129 -187 -177 -283 -23 -47 -54 -97 -68 -113
-36 -38 -20 -50 57 -41 40 4 61 11 61 20 0 7 -4 16 -10 19 -15 9 -12 40 7 80
l17 35 103 0 103 0 0 -60 c0 -47 -3 -60 -15 -60 -8 0 -15 -7 -15 -15 0 -12 17
-15 93 -15 52 0 96 2 99 6 3 3 -2 22 -12 42 -10 20 -26 73 -36 117 -22 104
-60 240 -81 288 -14 32 -20 37 -49 37 -28 0 -39 -8 -77 -57z m51 -92 c7 -21
15 -59 18 -85 l7 -46 -77 0 c-42 0 -76 3 -76 7 0 20 96 163 110 163 4 0 12
-17 18 -39z"/>
        <path d="M1610 1722 c-37 -5 -46 -19 -27 -40 17 -18 16 -26 -2 -142 -11 -67
-22 -124 -25 -127 -2 -3 -25 37 -50 89 -25 51 -63 121 -85 156 l-40 62 -75 0
c-81 0 -98 -10 -70 -41 17 -19 17 -26 -12 -197 -24 -146 -33 -181 -53 -205
-32 -37 -15 -50 54 -42 58 7 79 21 53 36 -10 6 -18 22 -18 37 0 44 43 303 49
296 3 -3 49 -85 101 -182 l96 -177 37 -3 c47 -4 47 -5 88 232 25 141 38 194
51 205 10 9 18 21 18 27 0 13 -49 21 -90 16z"/>
        <path d="M1800 1723 c-38 -7 -48 -22 -26 -38 18 -13 17 -18 -4 -152 -33 -216
-40 -243 -61 -256 -42 -26 -22 -37 70 -37 89 0 122 12 87 32 -19 10 -20 38 -6
106 9 37 18 52 41 66 17 10 32 16 34 14 9 -10 75 -147 75 -157 0 -6 -5 -20
-12 -31 -7 -10 -10 -22 -6 -25 8 -8 165 -11 173 -3 8 7 -84 205 -117 250 -17
25 -18 32 -7 42 46 42 160 143 174 155 26 21 5 32 -63 34 -70 2 -90 -10 -71
-41 10 -17 10 -23 -1 -37 -19 -23 -177 -145 -188 -145 -18 0 13 148 36 173 30
31 28 47 -5 47 -16 0 -44 2 -63 4 -19 2 -46 2 -60 -1z"/>
        <path d="M3728 1723 c-50 -3 -68 -8 -68 -18 0 -8 5 -17 10 -20 16 -10 12 -59
-19 -230 -24 -128 -34 -163 -50 -176 -12 -10 -21 -21 -21 -27 0 -14 141 -24
249 -16 128 9 183 32 218 91 20 34 24 52 20 80 -7 41 -42 83 -68 83 -31 0 -31
19 -1 34 42 22 82 73 82 105 0 37 -24 68 -63 79 -38 12 -195 20 -289 15z m203
-53 c33 -18 25 -68 -19 -109 -37 -36 -116 -71 -129 -58 -8 8 14 133 28 159 11
21 86 26 120 8z m-14 -222 c26 -24 31 -82 10 -109 -21 -27 -61 -47 -107 -54
-66 -8 -74 1 -66 77 4 35 10 68 14 74 7 11 72 31 106 33 11 1 30 -9 43 -21z"/>
        <path d="M195 1709 c-4 -5 0 -18 9 -28 15 -16 13 -33 -17 -204 -29 -163 -36
-190 -56 -203 -44 -31 -10 -39 164 -38 154 1 167 2 212 26 113 58 126 185 23
228 l-30 12 43 28 c76 48 89 126 28 167 -32 22 -44 23 -202 23 -108 0 -170 -4
-174 -11z m276 -50 c22 -22 19 -46 -10 -86 -18 -26 -105 -73 -133 -73 -20 0
-20 1 -1 105 10 57 29 75 78 75 32 0 51 -6 66 -21z m-24 -211 c32 -30 32 -90
-1 -123 -30 -30 -102 -50 -136 -38 -22 8 -25 14 -23 53 4 95 9 106 56 117 65
16 79 15 104 -9z"/>
        <path d="M4185 1709 c-4 -5 0 -18 9 -28 16 -17 15 -31 -13 -196 -23 -138 -35
-183 -51 -200 -37 -39 -27 -45 75 -45 74 0 95 3 95 14 0 7 -7 19 -16 27 -12
10 -14 23 -9 58 13 92 9 88 86 93 131 10 242 91 242 178 0 46 -22 76 -70 96
-40 17 -338 20 -348 3z m266 -48 c17 -13 23 -28 22 -54 -2 -64 -57 -116 -142
-133 -29 -6 -31 -5 -31 22 1 54 27 166 41 175 24 15 86 10 110 -10z"/>
        <path d="M4666 1712 c-3 -5 3 -19 13 -31 17 -19 17 -26 5 -93 -8 -40 -23 -122
-34 -183 -14 -82 -25 -114 -40 -127 -11 -9 -20 -21 -20 -26 0 -17 157 -24 263
-13 118 12 171 35 226 98 78 87 95 231 38 307 -50 65 -71 71 -268 74 -105 2
-179 0 -183 -6z m295 -55 c47 -31 64 -70 63 -142 -2 -106 -66 -201 -151 -224
-75 -21 -113 -12 -113 28 0 48 58 331 70 346 19 23 91 19 131 -8z"/>
        <path d="M5475 1709 c-4 -5 0 -18 9 -28 16 -17 15 -31 -13 -194 -29 -171 -42
-217 -61 -217 -6 0 -10 -6 -10 -14 0 -39 300 -28 399 14 136 59 204 254 129
368 -46 69 -90 82 -282 82 -106 0 -167 -4 -171 -11z m280 -43 c49 -21 75 -68
75 -137 0 -147 -101 -259 -223 -247 -27 3 -33 8 -36 33 -5 43 50 335 67 351
18 18 74 18 117 0z"/>
        <path d="M6055 1709 c-4 -5 0 -18 9 -28 15 -16 14 -31 -9 -177 -32 -206 -33
-209 -56 -230 -10 -9 -19 -21 -19 -26 0 -4 43 -8 95 -8 76 0 95 3 95 15 0 7
-7 18 -16 23 -15 9 -14 25 16 193 27 154 36 188 56 210 14 14 21 28 17 32 -11
11 -181 8 -188 -4z"/>
        <path d="M6280 1708 c0 -6 8 -21 18 -32 11 -12 27 -41 36 -65 10 -25 36 -76
58 -114 36 -63 39 -73 33 -115 -11 -80 -16 -92 -46 -108 -17 -8 -27 -19 -24
-24 8 -13 212 -13 220 0 3 5 -3 15 -15 22 -14 9 -20 23 -20 48 1 86 15 114
101 216 46 54 99 113 117 131 17 17 32 36 32 42 0 7 -27 11 -70 11 -71 0 -79
-5 -59 -38 9 -14 8 -25 -3 -46 -20 -37 -111 -145 -123 -145 -14 -1 -85 130
-85 156 0 11 9 28 20 38 11 10 17 22 14 26 -8 14 -204 11 -204 -3z"/>
    </g>
</svg>
